<svg width="110" height="114" viewBox="0 0 110 114" fill="none" xmlns="http://www.w3.org/2000/svg">
<path d="M81.6459 86.3491H25.2224L28.0554 79.1773L75.1271 79.0713C76.7189 79.0713 78.0833 77.6581 78.3675 75.7032L84.8863 30.3524C85.0568 29.163 84.801 27.9383 84.1757 27.0079C83.8666 26.5501 83.4811 26.1813 83.0459 25.9271C82.6107 25.6729 82.1362 25.5394 81.6553 25.5359L21.7735 25.2886L21.2618 22.2974C20.9397 20.3896 19.5563 19 17.9835 19H3.34467C2.45761 19 1.60688 19.438 0.97963 20.2176C0.352383 20.9972 0 22.0545 0 23.1571C0 24.2596 0.352383 25.3169 0.97963 26.0965C1.60688 26.8761 2.45761 27.3141 3.34467 27.3141H15.2737L17.5098 40.5272L23.0147 73.6541L15.9274 88.0331C15.5594 88.6505 15.3377 89.3836 15.2875 90.1495C15.2372 90.9154 15.3604 91.6834 15.6432 92.3668C16.2117 93.7682 17.3582 94.6514 18.6278 94.6514H24.5781C23.3096 96.7455 22.6244 99.2962 22.6262 101.917C22.6262 108.583 26.9847 114 32.3476 114C37.7104 114 42.0689 108.583 42.0689 101.917C42.0689 99.2913 41.3677 96.7358 40.117 94.6514H55.3812C54.1127 96.7455 53.4275 99.2962 53.4294 101.917C53.4294 108.583 57.7879 114 63.1507 114C68.5135 114 72.872 108.583 72.872 101.917C72.872 99.2913 72.1709 96.7358 70.9202 94.6514H81.6553C83.4935 94.6514 85 92.7907 85 90.4944C84.9945 89.393 84.6387 88.339 84.0104 87.5624C83.382 86.7859 82.532 86.3497 81.6459 86.3491ZM23.1663 33.4849L77.7232 33.7087L72.3793 70.8985L29.524 70.9927L23.1663 33.4849ZM32.3476 105.639C30.6989 105.639 29.3535 103.967 29.3535 101.917C29.3535 99.8683 30.6989 98.1961 32.3476 98.1961C33.9962 98.1961 35.3417 99.8683 35.3417 101.917C35.3417 102.904 35.0262 103.851 34.4647 104.549C33.9032 105.247 33.1416 105.639 32.3476 105.639ZM63.1507 105.639C61.5021 105.639 60.1566 103.967 60.1566 101.917C60.1566 99.8683 61.5021 98.1961 63.1507 98.1961C64.7994 98.1961 66.1448 99.8683 66.1448 101.917C66.1448 102.904 65.8293 103.851 65.2678 104.549C64.7063 105.247 63.9448 105.639 63.1507 105.639Z" fill="#747364"/>
<path d="M96 16.9375C96 17.2856 96.1383 17.6194 96.3844 17.8656C96.6306 18.1117 96.9644 18.25 97.3125 18.25C97.6606 18.25 97.9944 18.1117 98.2406 17.8656C98.4867 17.6194 98.625 17.2856 98.625 16.9375C98.625 16.5894 98.4867 16.2556 98.2406 16.0094C97.9944 15.7633 97.6606 15.625 97.3125 15.625C96.9644 15.625 96.6306 15.7633 96.3844 16.0094C96.1383 16.2556 96 16.5894 96 16.9375ZM96.6562 13.875H97.9688C98.0891 13.875 98.1875 13.7766 98.1875 13.6562V6.21875C98.1875 6.09844 98.0891 6 97.9688 6H96.6562C96.5359 6 96.4375 6.09844 96.4375 6.21875V13.6562C96.4375 13.7766 96.5359 13.875 96.6562 13.875Z" fill="#747364"/>
<path d="M97.25 0C90.4852 0 85 5.48516 85 12.25C85 19.0148 90.4852 24.5 97.25 24.5C104.015 24.5 109.5 19.0148 109.5 12.25C109.5 5.48516 104.015 0 97.25 0ZM97.25 22.4219C91.6336 22.4219 87.0781 17.8664 87.0781 12.25C87.0781 6.63359 91.6336 2.07812 97.25 2.07812C102.866 2.07812 107.422 6.63359 107.422 12.25C107.422 17.8664 102.866 22.4219 97.25 22.4219Z" fill="#747364"/>
</svg>
