<svg width="555" height="531" viewBox="0 0 555 531" fill="none" xmlns="http://www.w3.org/2000/svg">
<path d="M430.604 115.024C428.075 108.201 425.261 101.426 422.18 94.8398C416.041 81.7326 414.631 69.3113 406.007 58.3502" stroke="#73807A" stroke-width="7.24" stroke-miterlimit="10"/>
<path d="M386.017 45.7869C378.596 38.4441 371.655 30.5514 359.043 24.6569C332.392 12.2414 298.313 10.9822 254.814 28.5412" stroke="#73807A" stroke-width="7.24" stroke-miterlimit="10"/>
<path d="M71.9381 526.986C29.7883 469.03 16.1557 403.506 23.1999 336.492" stroke="#73807A" stroke-width="7.24" stroke-miterlimit="10"/>
<path d="M454.319 241.674V242.39C453.906 255.396 466.262 309.315 501.307 326.442C536.352 343.57 561.338 418.748 482.326 448.244C403.314 477.74 407.617 526.988 407.617 526.988" stroke="#73807A" stroke-width="7.24" stroke-miterlimit="10"/>
<path d="M254.808 84.2098V20.5126C254.797 16.1365 253.005 11.9428 249.824 8.84848C246.643 5.75413 242.332 4.01094 237.833 4H20.9754C16.4767 4.01094 12.1655 5.75413 8.98438 8.84848C5.8033 11.9428 4.01124 16.1365 4 20.5126V320.021C4.00802 324.395 5.80026 328.586 8.9831 331.676C12.1659 334.765 16.4791 336.5 20.9754 336.498H237.833C239.936 336.511 242.022 336.121 243.971 335.351" stroke="black" stroke-width="7.24" stroke-linecap="round" stroke-linejoin="round"/>
<path d="M232.028 14.0922H26.7798C18.4048 14.0922 11.6155 20.6963 11.6155 28.8429V311.685C11.6155 319.832 18.4048 326.435 26.7798 326.435H232.028C240.404 326.435 247.193 319.832 247.193 311.685V28.8429C247.193 20.6963 240.404 14.0922 232.028 14.0922Z" fill="#758073"/>
<path d="M228.315 38.2602H33.0704C28.8812 38.2602 25.4852 41.5639 25.4852 45.6385V89.3646C25.4852 93.4398 28.8812 96.7429 33.0704 96.7429H228.315C232.504 96.7429 235.9 93.4398 235.9 89.3646V45.6385C235.9 41.5639 232.504 38.2602 228.315 38.2602Z" fill="#758073"/>
<path d="M129.404 62.8919C132.838 62.8919 135.622 60.1841 135.622 56.8438C135.622 53.5034 132.838 50.7957 129.404 50.7957C125.97 50.7957 123.186 53.5034 123.186 56.8438C123.186 60.1841 125.97 62.8919 129.404 62.8919Z" fill="#B0BFAC"/>
<path d="M112.028 84.211C112.028 79.7278 113.858 75.4285 117.117 72.2591C120.375 69.089 124.795 67.3082 129.404 67.3082C134.013 67.3082 138.432 69.089 141.691 72.2591C144.95 75.4285 146.781 79.7278 146.781 84.211H112.028Z" fill="#B0BFAC"/>
<path d="M130.668 159.406C124.04 159.402 117.559 161.311 112.046 164.891C106.533 168.471 102.235 173.561 99.6968 179.518C97.1587 185.474 96.4938 192.029 97.7859 198.353C99.0781 204.678 102.27 210.487 106.957 215.046C111.644 219.606 117.616 222.71 124.118 223.967C130.619 225.225 137.358 224.577 143.481 222.108C149.604 219.639 154.837 215.459 158.518 210.096C162.198 204.733 164.161 198.43 164.157 191.981C164.152 183.343 160.622 175.06 154.343 168.952C148.064 162.844 139.549 159.41 130.668 159.406ZM130.668 216.7C129.371 216.7 128.128 216.199 127.211 215.307C126.294 214.415 125.779 213.205 125.779 211.944C125.779 210.683 126.294 209.472 127.211 208.581C128.128 207.689 129.371 207.187 130.668 207.187C131.965 207.187 133.209 207.689 134.126 208.581C135.042 209.472 135.558 210.683 135.558 211.944C135.558 213.205 135.042 214.415 134.126 215.307C133.209 216.199 131.965 216.7 130.668 216.7ZM136.874 180.045C135.822 187.104 134.935 194.547 132.802 201.411C132.279 203.043 129.094 203.043 128.547 201.411C127.018 196.245 125.845 190.985 125.034 185.667C124.378 181.801 122.05 175.546 124.28 171.774C126.219 168.421 131.732 168.008 134.917 169.764C138.873 171.975 137.33 176.557 136.874 180.068V180.045Z" fill="#B0BFAC"/>
<path d="M46.5267 122.852H210.136" stroke="url(#paint0_linear_216_141)" stroke-width="7.24" stroke-miterlimit="10"/>
<path d="M46.5267 138.512H210.136" stroke="url(#paint1_linear_216_141)" stroke-width="7.24" stroke-miterlimit="10"/>
<path d="M46.5267 239.392H210.136" stroke="url(#paint2_linear_216_141)" stroke-width="7.24" stroke-miterlimit="10"/>
<path d="M84.5314 254.208H172.131" stroke="url(#paint3_linear_216_141)" stroke-width="7.24" stroke-miterlimit="10"/>
<path d="M63.9093 351.231C63.9093 351.231 93.0222 238.699 183.697 211.214L220.553 202.659C220.553 202.659 226.382 177.338 224.237 174.677C222.091 172.017 217.685 166.566 209.613 167.748C201.542 168.931 180.677 169.309 175.334 144.496C169.992 119.683 189.733 60.7032 241.036 51.8823C292.339 43.0614 293.536 79.7048 293.536 79.7048L255.854 164.644L261.7 233.166L262.436 335.239L63.9093 351.231Z" fill="url(#paint4_linear_216_141)"/>
<path d="M377.252 264.301C376.645 264.473 368.889 266.666 365.838 271.892C365.257 270.696 364.338 269.685 363.189 268.977C362.04 268.27 360.707 267.895 359.347 267.895H268.271C266.65 267.893 265.077 268.426 263.808 269.406C262.539 270.387 261.651 271.757 261.287 273.293L243.351 348.1C242.136 347.869 240.92 347.727 239.656 347.609L197.33 337.334C195.515 336.89 193.594 337.122 191.944 337.982C190.294 338.843 189.034 340.27 188.408 341.986C188.126 342.756 187.986 343.569 187.994 344.386C187.994 346.243 188.718 348.031 190.02 349.39C191.321 350.748 193.104 351.575 195.008 351.706L215.023 352.959C195.744 361.786 172.289 378.6 152.713 394.048C133.665 365.037 151.54 336.033 164.984 320.413C163.252 303.197 154.475 263.225 110.684 264.313C125.77 245.494 144.58 229.367 167.889 218.57C247.727 304.652 339.065 234.273 341.004 232.76C354.663 241.427 366.886 252.067 377.252 264.313" fill="#2E2E2E"/>
<path d="M368.956 511.238V526.113H105.293V505.042C115.565 505.633 126.371 503.268 136.199 498.958C148.64 493.448 159.386 484.887 168.576 475.12C178.027 465.011 183.217 450.993 189.24 438.802C198.284 420.445 210.264 407.368 229.275 401.828L228.06 406.912C227.816 407.936 227.812 409 228.049 410.025C228.286 411.05 228.758 412.01 229.429 412.833C230.1 413.656 230.953 414.321 231.925 414.78C232.898 415.238 233.963 415.477 235.043 415.479H326.575C324.752 430.851 317.063 514.803 368.956 511.255" fill="#2E2E2E"/>
<path d="M326.618 120.026C326.544 127.98 325.479 135.894 323.445 143.598C322.518 147.25 320.526 150.564 317.71 153.143C314.894 155.722 311.373 157.455 307.57 158.136C307.418 152.767 305.072 148.055 301.492 145.129C301.819 140.584 301.772 136.021 301.352 131.484C301.115 128.486 300.745 125.69 300.356 123.177C300.124 121.747 299.789 120.335 299.353 118.95C298.131 117.674 296.692 116.611 295.098 115.811C289.464 112.725 277.868 109.443 256.382 114.268C252.874 115.049 249.574 116.537 246.694 118.637C246.63 118.676 246.573 118.723 246.524 118.779C244.585 120.517 242.118 122.716 239.565 123.857C236.921 125.039 234.162 125.087 231.846 122.29C231.785 122.231 231.755 122.178 231.7 122.119C230.485 120.576 229.324 118.572 227.178 118.176C222.656 117.348 220.456 121.723 219.885 125.4C219.387 128.8 220.414 131.797 221.915 134.653C223.172 136.974 224.815 139.078 226.777 140.878C227.281 141.352 227.742 141.866 228.157 142.415C227.968 142.448 227.783 142.497 227.604 142.563C227.188 142.699 226.782 142.861 226.388 143.048C220.918 145.442 217.022 151.443 216.937 158.467C216.937 158.685 207.766 158.555 206.605 158.467C202.132 158.065 197.725 156.811 194.577 153.53C185.642 144.218 185.685 130.402 189.356 119.594C192.832 109.337 197.257 99.3218 203.055 90.093C215.618 70.1218 235.11 55.3888 259.786 54.0645C265.704 53.7754 271.636 54.1124 277.479 55.0695C280.243 55.4934 282.978 56.0858 285.665 56.8432C310.822 67.5205 326.788 91.7247 326.642 120.026" fill="#2E2E2E"/>
<path d="M312.049 347.702C309.077 355.122 302.003 359.366 296.247 357.161C290.491 354.956 288.23 347.199 291.196 339.78C294.162 332.36 301.243 328.109 306.999 330.32C312.754 332.531 315.021 340.288 312.049 347.708" fill="#758073"/>
<path d="M327.341 413.965C327.341 413.965 311.198 523.428 375.769 511.296C439.988 499.218 464.293 245.085 278.408 208.536" stroke="black" stroke-width="7.24" stroke-miterlimit="10"/>
<path d="M176.161 308.583C176.161 308.583 124.062 351.322 152.135 394.067" stroke="black" stroke-width="7.24" stroke-miterlimit="10"/>
<path d="M328.514 383.561C327.621 383.614 326.344 383.034 325.475 382.804C324.373 382.52 323.281 382.216 322.199 381.893C315.852 379.971 309.88 377.03 304.531 373.191C303.315 372.345 301.152 371.801 299.669 372.357C298.843 372.652 298.115 373.157 297.558 373.819C297.002 374.481 296.64 375.277 296.508 376.123C296.052 379.174 298.265 382.159 300.678 384.116C303.54 386.446 306.512 388.592 309.983 389.987C313.333 391.295 316.789 392.329 320.315 393.079C321.914 393.44 323.536 393.67 325.123 394.067" stroke="black" stroke-width="7.24" stroke-miterlimit="10"/>
<path d="M348.51 353.945C349.167 357.314 349.647 360.814 349.319 364.238C349.045 367.134 347.975 370.516 344.663 371.22C344.033 371.382 343.38 371.44 342.73 371.391C330.258 370.676 319.981 366.484 308.245 358.231C296.508 349.977 292.375 368.985 303.097 372.355" stroke="black" stroke-width="7.24" stroke-miterlimit="10"/>
<path d="M303.546 386.409C303.258 386.179 302.985 385.931 302.726 385.67C296.885 379.728 295.827 391.665 301.96 395.177L302.75 395.632C303.163 395.803 303.607 396.004 304.045 396.223C304.251 396.276 304.482 396.365 304.695 396.424M304.695 396.424C310.238 398.789 316.14 400.303 321.95 401.846C316.2 400.019 310.469 398.222 304.695 396.424ZM304.695 396.424C304.197 396.223 303.723 396.022 303.224 395.792C303.071 395.73 302.912 395.682 302.75 395.65C302.647 395.604 302.533 395.585 302.42 395.596C302.307 395.606 302.199 395.645 302.106 395.709C301.967 395.819 301.866 395.968 301.814 396.135C300.872 398.334 301.638 401.107 302.841 403.075C304.106 405.156 306.275 406.759 308.415 407.9C314.17 411.039 320.862 412.895 327.323 414.007C328.521 414.248 329.749 414.326 330.97 414.237" stroke="black" stroke-width="7.24" stroke-miterlimit="10"/>
<path d="M383.087 427.781C383.087 427.781 363.279 394.945 361.073 366.395C359.724 348.724 354.388 344.982 350.571 344.727" stroke="black" stroke-width="7.24" stroke-miterlimit="10"/>
<path d="M344.663 371.214L348.516 353.945L350.571 344.722L365.802 276.343C366.028 275.324 366.016 274.27 365.769 273.256C365.521 272.243 365.044 271.297 364.371 270.486C363.699 269.675 362.848 269.021 361.882 268.572C360.916 268.122 359.859 267.889 358.788 267.888H267.705C266.086 267.887 264.513 268.42 263.244 269.4C261.976 270.381 261.087 271.751 260.722 273.286L242.786 348.098L229.695 402.685L228.479 407.799C228.237 408.823 228.235 409.886 228.474 410.91C228.712 411.934 229.185 412.893 229.856 413.715C230.527 414.538 231.381 415.202 232.352 415.66C233.324 416.118 234.389 416.357 235.469 416.359H326.995" stroke="black" stroke-width="7.24" stroke-miterlimit="10"/>
<path d="M231.737 120.323C231.737 120.323 236.556 100.44 263.773 97.8036C290.99 95.1668 297.809 114.949 297.809 114.949L296.952 116.941C296.952 116.941 261.172 102.977 241.413 122.906C241.413 122.906 234.295 126.046 231.737 120.335" fill="#758073"/>
<path d="M239.079 347.607L196.747 337.32C195.737 337.077 194.686 337.041 193.661 337.214C192.637 337.387 191.66 337.765 190.793 338.325C189.927 338.885 189.19 339.615 188.628 340.467C188.067 341.319 187.695 342.275 187.534 343.274C187.373 344.274 187.428 345.296 187.695 346.273C187.962 347.251 188.434 348.165 189.084 348.955C189.733 349.746 190.544 350.397 191.466 350.866C192.388 351.335 193.399 351.613 194.437 351.681L214.451 352.964" stroke="black" stroke-width="7.24" stroke-miterlimit="10"/>
<path d="M340.457 232.731C340.457 232.731 247.995 305.592 167.318 218.57" stroke="black" stroke-width="7.24" stroke-miterlimit="10"/>
<path d="M164.419 320.4C162.686 303.184 153.916 263.182 110.089 264.3" stroke="black" stroke-width="7.24" stroke-miterlimit="10"/>
<path d="M376.699 264.288C376.699 264.288 368.44 266.499 365.273 271.903" stroke="black" stroke-width="7.24" stroke-miterlimit="10"/>
<path d="M41.1478 526.999H433.722" stroke="black" stroke-width="7.24" stroke-miterlimit="10"/>
<path d="M301.492 145.152C305.193 148.179 307.57 153.121 307.57 158.714C307.57 167.996 300.939 175.505 292.746 175.505C291.819 175.5 290.896 175.395 289.993 175.191C299.535 168.097 301.468 145.152 301.468 145.152" fill="#758073"/>
<path d="M247.515 182.619C252.114 184.846 257.148 186.097 262.282 186.29C267.416 186.482 272.534 185.612 277.296 183.737C304.148 172.829 303.121 140.679 300.331 123.203C300.109 121.785 299.792 120.383 299.383 119.005V118.975C296.302 108.984 288.261 100.843 277.667 98.5313C257.148 94.0204 238.386 105.336 230.6 120.572" stroke="black" stroke-width="7.24" stroke-miterlimit="10"/>
<path d="M299.638 119.317C299.638 119.317 299.553 119.199 299.377 119.004V118.974C297.554 116.976 286.996 107.44 256.437 114.292C252.931 115.072 249.632 116.56 246.755 118.661C246.687 118.699 246.626 118.747 246.573 118.803" stroke="black" stroke-width="7.24" stroke-miterlimit="10"/>
<path d="M218.183 167.749H203.068C192.158 167.749 183.509 158.03 179.747 148.907C174.459 136.078 177.844 122.947 182.603 110.479C186.59 100.044 191.659 89.9044 198.327 80.8293C213.254 60.5211 235.791 49.0161 261.694 51.1445C263.992 51.3337 266.279 51.6092 268.556 51.9722C303.34 57.4586 326.794 85.7482 326.618 120.009C326.545 127.968 325.48 135.889 323.445 143.598C322.51 147.248 320.516 150.559 317.7 153.136C314.884 155.714 311.366 157.449 307.564 158.136" stroke="black" stroke-width="7.24" stroke-miterlimit="10"/>
<path d="M228.169 142.415C227.753 141.865 227.291 141.349 226.789 140.872C224.826 139.075 223.183 136.973 221.927 134.653C220.426 131.797 219.399 128.8 219.897 125.4C220.456 121.746 222.656 117.348 227.191 118.176C229.336 118.578 230.479 120.576 231.712 122.119C236.405 128.031 242.865 122.089 246.828 118.518" stroke="black" stroke-width="7.24" stroke-miterlimit="10"/>
<path d="M301.492 145.152C305.193 148.179 307.57 153.121 307.57 158.714C307.57 167.996 300.939 175.505 292.746 175.505C291.819 175.5 290.896 175.395 289.993 175.191" stroke="black" stroke-width="7.24" stroke-miterlimit="10"/>
<path d="M269.772 156.546C273.09 158.716 281.107 160.496 279.496 154.063C277.564 146.443 274.962 130.161 290.892 128.919C290.892 128.919 297.906 129.209 301.371 131.526" stroke="black" stroke-width="7.24" stroke-miterlimit="10"/>
<path d="M275.771 169.286C275.771 169.286 267.748 173.424 263.773 165.177" stroke="black" stroke-width="7.24" stroke-miterlimit="10"/>
<path d="M259.5 140.051C259.19 142.67 260.242 144.934 261.852 145.118C263.463 145.301 265.019 143.344 265.335 140.707C265.651 138.07 264.587 135.83 262.983 135.646C261.378 135.463 259.81 137.42 259.5 140.051Z" fill="black"/>
<path d="M285.623 141.593C285.313 144.207 286.364 146.477 287.975 146.66C289.586 146.843 291.141 144.887 291.451 142.25C291.761 139.613 290.71 137.366 289.105 137.189C287.501 137.012 285.933 138.963 285.623 141.593Z" fill="black"/>
<path d="M269.772 130.592C269.772 130.592 264.861 123.226 253.732 130.214" stroke="black" stroke-width="7.24" stroke-miterlimit="10"/>
<path d="M278.402 183.25V224.115" stroke="black" stroke-width="7.24" stroke-miterlimit="10"/>
<path d="M112.319 427.782C112.319 427.782 129.635 411.819 152.123 394.082C171.7 378.634 195.178 361.79 214.463 352.97C216.931 351.852 219.326 350.853 221.654 350.014C227.208 347.954 233.169 347.146 239.091 347.649C240.331 347.748 241.564 347.909 242.786 348.133" stroke="black" stroke-width="7.24" stroke-miterlimit="10"/>
<path d="M229.695 402.685C210.677 408.225 198.698 421.302 189.66 439.66C183.649 451.85 178.446 465.868 168.995 475.978C159.812 485.739 149.066 494.305 136.625 499.815C114.051 509.807 86.2575 509.038 71.5917 487.311C61.6726 472.578 57.7707 454.274 55.7893 437.058C52.3857 407.137 63.1313 322.795 110.089 264.294C125.174 245.476 143.991 229.348 167.293 218.552C183.649 210.996 202.138 206.054 223.094 204.653L228.965 175.193" stroke="black" stroke-width="7.24" stroke-miterlimit="10"/>
<path d="M369.375 512.23V526.999" stroke="black" stroke-width="7.24" stroke-miterlimit="10"/>
<path d="M105.713 506.958V527" stroke="black" stroke-width="7.24" stroke-miterlimit="10"/>
<path d="M246.542 158.716C246.6 163.148 244.982 167.447 241.996 170.795C240.322 171.548 238.498 171.937 236.654 171.936C228.467 171.936 221.83 164.427 221.83 155.145C221.771 150.714 223.392 146.416 226.382 143.073C228.055 142.315 229.879 141.924 231.725 141.926C239.911 141.926 246.542 149.44 246.542 158.716Z" fill="#758073"/>
<path d="M231.737 175.507C239.914 175.507 246.542 167.989 246.542 158.716C246.542 149.443 239.914 141.926 231.737 141.926C223.56 141.926 216.931 149.443 216.931 158.716C216.931 167.989 223.56 175.507 231.737 175.507Z" stroke="black" stroke-width="7.24" stroke-miterlimit="10"/>
<path d="M407.763 11.9831C398.642 9.33811 388.919 9.38358 379.824 12.1138C370.729 14.844 362.671 20.1363 356.668 27.3214C350.665 34.5066 346.988 43.2619 346.1 52.4801C345.213 61.6982 347.156 70.9655 351.683 79.11C356.21 87.254 363.118 93.9098 371.534 98.2345C379.949 102.56 389.494 104.36 398.962 103.409C408.43 102.457 417.395 98.7956 424.723 92.8876C432.052 86.9796 437.414 79.0905 440.134 70.2176C443.78 58.3195 442.418 45.5002 436.347 34.5787C430.277 23.6579 419.995 15.5299 407.763 11.9831ZM383.585 90.8746C382.701 90.6174 381.876 90.1935 381.159 89.6265C380.443 89.0595 379.848 88.3607 379.409 87.5703C378.969 86.7798 378.695 85.9131 378.6 85.0192C378.506 84.1253 378.593 83.2219 378.857 82.3611C379.121 81.5003 379.557 80.698 380.14 80.001C380.723 79.3039 381.441 78.7251 382.254 78.2983C383.895 77.4357 385.821 77.2424 387.609 77.7615C389.396 78.2805 390.899 79.4689 391.786 81.0658C392.672 82.662 392.871 84.5362 392.338 86.2749C391.804 88.0137 390.582 89.4752 388.941 90.3377C387.3 91.2003 385.373 91.3936 383.585 90.8746ZM407.897 43.0218C407.795 43.2583 407.698 43.4889 407.605 43.7136C403.661 53.1505 398.756 62.1801 392.964 70.6669C391.56 72.7362 387.159 71.4591 387.147 68.9761C387.229 61.2596 387.838 53.5566 388.97 45.9188C389.675 40.3377 389.128 30.7837 393.766 26.4915C397.881 22.6486 405.642 24.2981 409.301 27.9873C413.343 32.0844 409.842 38.5227 407.879 43.0218H407.897Z" fill="#B0BFAC"/>
<path d="M441.057 280.405C437.718 283.707 435.461 287.899 434.571 292.45C433.681 297 434.199 301.706 436.058 305.97C437.918 310.234 441.035 313.867 445.017 316.407C448.999 318.948 453.666 320.283 458.427 320.243C463.189 320.203 467.832 318.791 471.769 316.184C475.705 313.578 478.758 309.894 480.542 305.599C482.327 301.304 482.761 296.591 481.791 292.056C480.821 287.521 478.49 283.367 475.093 280.121C470.54 275.77 464.398 273.356 458.015 273.409C451.632 273.462 445.533 275.978 441.057 280.405ZM471.252 309.274C470.598 309.922 469.705 310.29 468.772 310.298C467.838 310.305 466.94 309.952 466.274 309.315C465.609 308.679 465.23 307.811 465.222 306.903C465.214 305.995 465.577 305.121 466.232 304.473C466.556 304.153 466.942 303.897 467.367 303.722C467.793 303.546 468.25 303.454 468.712 303.45C469.174 303.446 469.632 303.531 470.061 303.699C470.489 303.868 470.88 304.117 471.21 304.432C471.539 304.747 471.802 305.122 471.982 305.537C472.163 305.95 472.258 306.394 472.262 306.844C472.266 307.294 472.178 307.74 472.005 308.157C471.832 308.574 471.576 308.953 471.252 309.274ZM455.061 287.724C458.264 291.803 461.746 296.001 464.263 300.518C464.87 301.606 463.26 303.202 462.129 302.623C458.638 300.783 455.277 298.717 452.071 296.438C449.7 294.83 445.227 292.826 444.364 289.829C443.58 287.156 446.145 284.206 448.679 283.497C451.791 282.634 453.444 285.726 455.061 287.724Z" fill="#758073"/>
<path d="M535.446 92.8427C537.845 89.973 539.314 86.4753 539.669 82.7933C540.024 79.1112 539.249 75.409 537.441 72.1556C535.632 68.9022 532.874 66.2435 529.512 64.5148C526.151 62.7866 522.338 62.0666 518.556 62.4461C514.774 62.8257 511.193 64.2877 508.265 66.6467C505.337 69.0062 503.194 72.1568 502.107 75.7011C501.02 79.2448 501.037 83.0227 502.157 86.5569C503.278 90.0912 505.45 93.2228 508.4 95.5564C510.359 97.1059 512.613 98.2647 515.032 98.9671C517.452 99.6694 519.99 99.9012 522.501 99.6487C525.013 99.3969 527.449 98.6661 529.67 97.4985C531.891 96.3303 533.854 94.7482 535.446 92.8427ZM509.208 72.0971C509.441 71.818 509.728 71.5868 510.053 71.416C510.377 71.2451 510.733 71.1381 511.1 71.1009C511.467 71.0636 511.838 71.0973 512.192 71.2002C512.546 71.3025 512.876 71.4716 513.162 71.698C513.449 71.9244 513.686 72.2035 513.862 72.5192C514.038 72.8349 514.148 73.1808 514.186 73.5384C514.224 73.8955 514.19 74.2562 514.084 74.6003C513.979 74.9443 513.805 75.2648 513.572 75.5438C513.102 76.1067 512.422 76.4649 511.68 76.54C510.939 76.6145 510.197 76.3999 509.619 75.9429C509.04 75.4859 508.672 74.8237 508.594 74.1025C508.518 73.3812 508.738 72.6599 509.208 72.0971ZM523.753 88.0598C520.89 85.0505 517.808 81.988 515.444 78.559C514.873 77.7372 516.052 76.3538 516.976 76.7322C519.903 77.9459 522.744 79.3483 525.479 80.9298C527.484 82.0353 531.198 83.2946 532.116 85.624C532.942 87.6873 531.131 90.2236 529.168 90.9449C526.743 91.8554 525.187 89.5201 523.753 88.0243V88.0598Z" fill="#758073"/>
<path d="M344.359 216.134C351.142 227.367 350.832 235.366 349.069 248.331C348.364 253.268 353.828 256.608 358.259 254.125C397.406 232.251 433.946 249.549 480.624 238.825C497.764 234.911 519.133 226.8 533.781 213.757C538.641 206.737 541.239 198.466 541.239 190.002C541.239 154.53 491.4 125.732 429.935 125.732C390.545 125.732 355.937 137.556 336.154 155.369C336.154 155.369 336.154 155.369 336.099 155.422C331.079 162.736 328.32 170.729 328.32 179.071C328.289 191.8 338.02 205.599 344.359 216.134Z" fill="#B0BFAC"/>
<path d="M328.465 179.07C328.465 179.366 328.465 179.662 328.465 179.969C328.684 192.384 335.09 203.955 342.675 213.964C347.757 220.656 353.786 228.094 352.357 236.3C351.75 239.918 349.653 243.199 349.13 246.829C348.607 250.459 350.595 254.988 354.363 255.177C356.758 255.295 358.794 253.64 360.69 252.221C371.904 243.767 386.478 240.604 400.652 240.048C414.825 239.492 428.981 241.313 443.16 241.703C463.606 242.295 484.374 239.788 503.258 232.161C520.179 225.339 535.683 214.141 545.864 199.183C555.868 184.498 549.954 163.173 539.281 150.403C529.277 138.419 514.782 130.751 499.915 125.347C459.929 110.827 414.291 111.158 374.858 127.067C363.152 131.797 351.829 137.946 343.052 146.843C334.501 155.511 328.557 167.063 328.465 179.07Z" stroke="black" stroke-width="7.24" stroke-miterlimit="10"/>
<path d="M492.531 193.2C501.01 193.2 507.883 186.514 507.883 178.266C507.883 170.018 501.01 163.332 492.531 163.332C484.052 163.332 477.178 170.018 477.178 178.266C477.178 186.514 484.052 193.2 492.531 193.2Z" fill="url(#paint5_linear_216_141)"/>
<path d="M442.875 193.2C451.354 193.2 458.227 186.514 458.227 178.266C458.227 170.018 451.354 163.332 442.875 163.332C434.396 163.332 427.522 170.018 427.522 178.266C427.522 186.514 434.396 193.2 442.875 193.2Z" fill="url(#paint6_linear_216_141)"/>
<path d="M392.252 193.2C400.732 193.2 407.605 186.514 407.605 178.266C407.605 170.018 400.732 163.332 392.252 163.332C383.773 163.332 376.9 170.018 376.9 178.266C376.9 186.514 383.773 193.2 392.252 193.2Z" fill="url(#paint7_linear_216_141)"/>
<defs>
<linearGradient id="paint0_linear_216_141" x1="128.331" y1="122.852" x2="128.331" y2="123.852" gradientUnits="userSpaceOnUse">
<stop stop-color="white"/>
<stop offset="0.447115" stop-color="#999999"/>
<stop offset="0.894231"/>
</linearGradient>
<linearGradient id="paint1_linear_216_141" x1="128.331" y1="138.512" x2="128.331" y2="139.512" gradientUnits="userSpaceOnUse">
<stop stop-color="white"/>
<stop offset="0.447115" stop-color="#999999"/>
<stop offset="0.894231"/>
</linearGradient>
<linearGradient id="paint2_linear_216_141" x1="128.331" y1="239.392" x2="128.331" y2="240.392" gradientUnits="userSpaceOnUse">
<stop stop-color="white"/>
<stop offset="0.447115" stop-color="#999999"/>
<stop offset="0.894231"/>
</linearGradient>
<linearGradient id="paint3_linear_216_141" x1="128.331" y1="254.208" x2="128.331" y2="255.208" gradientUnits="userSpaceOnUse">
<stop stop-color="white"/>
<stop offset="0.447115" stop-color="#999999"/>
<stop offset="0.894231"/>
</linearGradient>
<linearGradient id="paint4_linear_216_141" x1="178.723" y1="50.5118" x2="178.723" y2="351.231" gradientUnits="userSpaceOnUse">
<stop stop-color="white"/>
<stop offset="0.447115" stop-color="#999999"/>
<stop offset="0.894231"/>
</linearGradient>
<linearGradient id="paint5_linear_216_141" x1="492.531" y1="163.332" x2="492.531" y2="193.2" gradientUnits="userSpaceOnUse">
<stop stop-color="white"/>
<stop offset="0.447115" stop-color="#999999"/>
<stop offset="0.894231"/>
</linearGradient>
<linearGradient id="paint6_linear_216_141" x1="442.875" y1="163.332" x2="442.875" y2="193.2" gradientUnits="userSpaceOnUse">
<stop stop-color="white"/>
<stop offset="0.447115" stop-color="#999999"/>
<stop offset="0.894231"/>
</linearGradient>
<linearGradient id="paint7_linear_216_141" x1="392.252" y1="163.332" x2="392.252" y2="193.2" gradientUnits="userSpaceOnUse">
<stop stop-color="white"/>
<stop offset="0.447115" stop-color="#999999"/>
<stop offset="0.894231"/>
</linearGradient>
</defs>
</svg>
