<svg width="73" height="42" viewBox="0 0 73 42" fill="none" xmlns="http://www.w3.org/2000/svg">
<path d="M14.7443 6.63636C14.6236 5.42187 14.0874 4.45597 13.1357 3.73864C12.1839 3.02131 10.9872 2.66264 9.54545 2.66264C8.52983 2.66264 7.63494 2.83665 6.8608 3.18466C6.09375 3.53267 5.49006 4.01562 5.04972 4.63352C4.61648 5.24432 4.39986 5.94034 4.39986 6.72159C4.39986 7.29688 4.52415 7.80114 4.77273 8.23438C5.02131 8.66761 5.35511 9.04048 5.77415 9.35298C6.20028 9.65838 6.66903 9.92116 7.1804 10.1413C7.69886 10.3615 8.22088 10.5462 8.74645 10.6953L11.0476 11.3558C11.7436 11.5476 12.4396 11.7926 13.1357 12.0909C13.8317 12.3892 14.4673 12.7656 15.0426 13.2202C15.625 13.6676 16.0902 14.218 16.4382 14.8714C16.7933 15.5178 16.9709 16.2955 16.9709 17.2045C16.9709 18.3693 16.669 19.4169 16.0653 20.3473C15.4616 21.2777 14.5952 22.0163 13.4659 22.5632C12.3366 23.103 10.9837 23.3729 9.40696 23.3729C7.92259 23.3729 6.63352 23.1278 5.53977 22.6378C4.44602 22.1406 3.58665 21.4553 2.96165 20.5817C2.33665 19.7081 1.98509 18.696 1.90696 17.5455H3.95241C4.02344 18.4048 4.30753 19.1328 4.80469 19.7294C5.30185 20.326 5.94815 20.7805 6.74361 21.093C7.53906 21.3984 8.42685 21.5511 9.40696 21.5511C10.4936 21.5511 11.4595 21.37 12.3047 21.0078C13.157 20.6385 13.8246 20.1271 14.3075 19.4737C14.7976 18.8132 15.0426 18.0462 15.0426 17.1726C15.0426 16.4339 14.8509 15.8161 14.4673 15.3189C14.0838 14.8146 13.5476 14.392 12.8587 14.0511C12.1768 13.7102 11.3849 13.4084 10.483 13.1456L7.87287 12.3786C6.16122 11.8672 4.8331 11.1605 3.88849 10.2585C2.94389 9.35653 2.47159 8.20597 2.47159 6.80682C2.47159 5.63494 2.78409 4.60511 3.40909 3.71733C4.04119 2.82244 4.89347 2.12642 5.96591 1.62926C7.04545 1.125 8.25639 0.872868 9.59872 0.872868C10.9553 0.872868 12.1555 1.12145 13.1996 1.61861C14.2436 2.11577 15.071 2.80114 15.6818 3.67471C16.2997 4.54119 16.63 5.52841 16.6726 6.63636H14.7443ZM23.267 12.7727V23H21.3707V1.18182H23.267V9.20383H23.4375C23.821 8.35866 24.4141 7.68395 25.2166 7.17969C26.0263 6.67543 27.049 6.4233 28.2848 6.4233C29.3928 6.4233 30.3658 6.65057 31.2038 7.10511C32.0419 7.55966 32.6953 8.23082 33.1641 9.11861C33.6328 10.0064 33.8672 11.1001 33.8672 12.3999V23H31.9602V12.517C31.9602 11.1676 31.5838 10.1058 30.831 9.33168C30.0852 8.55043 29.0767 8.1598 27.8054 8.1598C26.9318 8.1598 26.1541 8.34446 25.4723 8.71378C24.7905 9.0831 24.2507 9.61577 23.853 10.3118C23.4624 11.0007 23.267 11.821 23.267 12.7727ZM45.2211 23.3409C43.8077 23.3409 42.5577 22.9822 41.4711 22.2649C40.3915 21.5476 39.5463 20.5568 38.9355 19.2926C38.3248 18.0213 38.0194 16.5547 38.0194 14.8928C38.0194 13.2166 38.3248 11.7429 38.9355 10.4716C39.5463 9.19318 40.3915 8.19886 41.4711 7.48864C42.5577 6.77131 43.8077 6.41264 45.2211 6.41264C46.6344 6.41264 47.8809 6.77131 48.9604 7.48864C50.04 8.20597 50.8851 9.20028 51.4959 10.4716C52.1138 11.7429 52.4228 13.2166 52.4228 14.8928C52.4228 16.5547 52.1174 18.0213 51.5066 19.2926C50.8958 20.5568 50.0471 21.5476 48.9604 22.2649C47.8809 22.9822 46.6344 23.3409 45.2211 23.3409ZM45.2211 21.6044C46.3574 21.6044 47.3198 21.299 48.1081 20.6882C48.8965 20.0774 49.4931 19.2642 49.8979 18.2486C50.3098 17.233 50.5158 16.1143 50.5158 14.8928C50.5158 13.6712 50.3098 12.549 49.8979 11.5263C49.4931 10.5036 48.8965 9.68324 48.1081 9.06534C47.3198 8.44744 46.3574 8.13849 45.2211 8.13849C44.0918 8.13849 43.1294 8.44744 42.334 9.06534C41.5456 9.68324 40.9455 10.5036 40.5336 11.5263C40.1287 12.549 39.9263 13.6712 39.9263 14.8928C39.9263 16.1143 40.1287 17.233 40.5336 18.2486C40.9455 19.2642 41.5456 20.0774 42.334 20.6882C43.1223 21.299 44.0847 21.6044 45.2211 21.6044ZM56.5856 29.1364V6.63636H58.4286V9.75781H58.6523C58.8796 9.26776 59.1921 8.76705 59.5898 8.25568C59.9876 7.73722 60.5131 7.30043 61.1665 6.94531C61.8271 6.5902 62.658 6.41264 63.6594 6.41264C65.0089 6.41264 66.1879 6.76776 67.1964 7.47798C68.212 8.18111 69.0004 9.16832 69.5614 10.4396C70.1296 11.7038 70.4137 13.1776 70.4137 14.8608C70.4137 16.5511 70.1296 18.032 69.5614 19.3033C69.0004 20.5746 68.212 21.5653 67.1964 22.2756C66.1879 22.9858 65.016 23.3409 63.6808 23.3409C62.6935 23.3409 61.8661 23.1634 61.1985 22.8082C60.538 22.4531 60.0018 22.0163 59.5898 21.4979C59.185 20.9723 58.8725 20.4609 58.6523 19.9638H58.4819V29.1364H56.5856ZM58.4606 14.8288C58.4606 16.1499 58.6559 17.3217 59.0465 18.3445C59.4442 19.3601 60.0124 20.1591 60.7511 20.7415C61.4968 21.3168 62.3988 21.6044 63.457 21.6044C64.5437 21.6044 65.4599 21.3061 66.2056 20.7095C66.9585 20.1058 67.5302 19.2926 67.9208 18.2699C68.3185 17.2472 68.5174 16.1001 68.5174 14.8288C68.5174 13.5717 68.3221 12.4389 67.9315 11.4304C67.5479 10.4219 66.9798 9.62287 66.2269 9.03338C65.4741 8.43679 64.5508 8.13849 63.457 8.13849C62.3917 8.13849 61.4862 8.42614 60.7404 9.00142C59.9947 9.5696 59.4265 10.358 59.0359 11.3665C58.6523 12.3679 58.4606 13.522 58.4606 14.8288ZM3.34517 41L0.356889 30.0909H1.36896L3.84055 39.4712H3.92578L6.39737 30.0909H7.54794L10.0195 39.4712H10.1048L12.5763 30.0909H13.5938L10.6055 41H9.54013L7.00994 31.7475H6.9407L4.41051 41H3.34517ZM24.2205 41.1864C23.7269 41.1864 23.2759 41.0906 22.8675 40.8988C22.4592 40.7035 22.1342 40.4229 21.8928 40.0572C21.6513 39.6879 21.5305 39.2404 21.5305 38.7148C21.5305 38.31 21.6069 37.9691 21.7596 37.6921C21.9123 37.4151 22.1289 37.1879 22.4094 37.0103C22.69 36.8327 23.022 36.6925 23.4055 36.5895C23.7891 36.4865 24.2116 36.4066 24.6733 36.3498C25.1314 36.293 25.5185 36.2433 25.8345 36.2006C26.1541 36.158 26.3974 36.0906 26.5643 35.9982C26.7312 35.9059 26.8146 35.7567 26.8146 35.5508V35.359C26.8146 34.8015 26.6477 34.3629 26.3139 34.0433C25.9837 33.7202 25.5078 33.5586 24.8864 33.5586C24.2969 33.5586 23.8157 33.6882 23.4428 33.9474C23.0735 34.2067 22.8143 34.5121 22.6651 34.8636L21.7649 34.5387C21.9496 34.0913 22.2053 33.7344 22.532 33.468C22.8587 33.1982 23.2244 33.0046 23.6293 32.8874C24.0341 32.7667 24.4442 32.7063 24.8597 32.7063C25.1722 32.7063 25.4972 32.7472 25.8345 32.8288C26.1754 32.9105 26.4915 33.0526 26.7827 33.255C27.0739 33.4538 27.31 33.7326 27.4911 34.0913C27.6722 34.4464 27.7628 34.8974 27.7628 35.4442V41H26.8146V39.7056H26.756C26.6424 39.9471 26.4737 40.1815 26.25 40.4087C26.0263 40.636 25.7457 40.8224 25.4084 40.968C25.071 41.1136 24.6751 41.1864 24.2205 41.1864ZM24.3484 40.3182C24.8526 40.3182 25.2894 40.2063 25.6587 39.9826C26.0281 39.7589 26.3121 39.4624 26.511 39.093C26.7134 38.7202 26.8146 38.31 26.8146 37.8626V36.68C26.7436 36.7475 26.6246 36.8079 26.4577 36.8612C26.2944 36.9144 26.1044 36.9624 25.8878 37.005C25.6747 37.044 25.4616 37.0778 25.2486 37.1062C25.0355 37.1346 24.8438 37.1594 24.6733 37.1808C24.2116 37.2376 23.8175 37.3263 23.4908 37.4471C23.1641 37.5678 22.9137 37.7347 22.7397 37.9478C22.5657 38.1573 22.4787 38.4272 22.4787 38.7575C22.4787 39.2546 22.6562 39.6399 23.0114 39.9134C23.3665 40.1832 23.8121 40.3182 24.3484 40.3182ZM41.0076 32.8182V33.6438H37.1032V32.8182H41.0076ZM38.323 30.858H39.2765V38.864C39.2765 39.2049 39.335 39.473 39.4522 39.6683C39.5694 39.8601 39.7221 39.9968 39.9103 40.0785C40.0985 40.1566 40.2992 40.1957 40.5123 40.1957C40.6365 40.1957 40.7431 40.1886 40.8319 40.1744C40.9206 40.1566 40.9988 40.1388 41.0662 40.1211L41.2686 40.9787C41.1763 41.0142 41.0627 41.0462 40.9277 41.0746C40.7928 41.1065 40.6259 41.1225 40.427 41.1225C40.079 41.1225 39.7434 41.0462 39.4203 40.8935C39.1007 40.7408 38.8379 40.5135 38.6319 40.2116C38.426 39.9098 38.323 39.5352 38.323 39.0877V30.858ZM53.7691 41.1705C53.0376 41.1705 52.4001 40.9876 51.8568 40.6218C51.317 40.256 50.898 39.7553 50.5997 39.1197C50.3014 38.484 50.1523 37.7596 50.1523 36.9464C50.1523 36.1261 50.3032 35.3963 50.605 34.7571C50.9104 34.1179 51.333 33.6172 51.8728 33.255C52.4126 32.8892 53.0393 32.7063 53.7531 32.7063C54.3 32.7063 54.7954 32.8129 55.2393 33.0259C55.6831 33.2354 56.0489 33.532 56.3366 33.9155C56.6278 34.2955 56.8106 34.7393 56.8852 35.2472H55.9264C55.827 34.7855 55.5873 34.3913 55.2073 34.0646C54.8309 33.7344 54.3515 33.5692 53.7691 33.5692C53.2471 33.5692 52.7854 33.7113 52.3841 33.9954C51.9829 34.2759 51.6686 34.6683 51.4413 35.1726C51.2176 35.6733 51.1057 36.2539 51.1057 36.9144C51.1057 37.5785 51.2158 38.1662 51.436 38.6776C51.6562 39.1854 51.9651 39.5831 52.3628 39.8707C52.7641 40.1584 53.2329 40.3022 53.7691 40.3022C54.1313 40.3022 54.4616 40.2347 54.7599 40.0998C55.0617 39.9613 55.3138 39.766 55.5162 39.5138C55.7222 39.2617 55.8607 38.9616 55.9317 38.6136H56.8905C56.8195 39.1072 56.6437 39.5476 56.3632 39.9347C56.0862 40.3182 55.7258 40.62 55.2819 40.8402C54.8415 41.0604 54.3373 41.1705 53.7691 41.1705ZM67.3708 35.8864V41H66.4227V30.0909H67.3708V34.1019H67.4561C67.6478 33.6793 67.9443 33.342 68.3456 33.0898C68.7504 32.8377 69.2618 32.7116 69.8797 32.7116C70.4337 32.7116 70.9202 32.8253 71.3392 33.0526C71.7583 33.2798 72.085 33.6154 72.3193 34.0593C72.5537 34.5032 72.6709 35.0501 72.6709 35.6999V41H71.7174V35.7585C71.7174 35.0838 71.5292 34.5529 71.1528 34.1658C70.7799 33.7752 70.2757 33.5799 69.64 33.5799C69.2032 33.5799 68.8144 33.6722 68.4735 33.8569C68.1325 34.0415 67.8627 34.3079 67.6638 34.6559C67.4685 35.0004 67.3708 35.4105 67.3708 35.8864Z" fill="black"/>
</svg>
