<svg width="40" height="40" viewBox="0 0 40 40" fill="none" xmlns="http://www.w3.org/2000/svg">
<path d="M15.1683 39.5567V26.2078H11.045V20.0736H15.1683V17.4306C15.1683 10.5972 18.2483 7.43058 24.9317 7.43058C25.6 7.43058 26.5233 7.50084 27.3783 7.60288C28.0187 7.66902 28.654 7.77799 29.28 7.92907V13.4911C28.9181 13.4573 28.5551 13.4372 28.1917 13.4309C27.7845 13.4203 27.3773 13.4153 26.97 13.4159C25.7917 13.4159 24.8717 13.5764 24.1783 13.9328C23.7122 14.1675 23.3204 14.5277 23.0467 14.9732C22.6167 15.6758 22.4233 16.6377 22.4233 17.904V20.0736H28.955L28.3117 23.5915L27.8333 26.2078H22.4233V40C32.3267 38.7989 40 30.3362 40 20.0736C40 8.98796 31.045 0 20 0C8.955 0 0 8.98796 0 20.0736C0 29.4881 6.45667 37.3871 15.1683 39.5567Z" fill="black" fill-opacity="0.7"/>
</svg>
