<svg width="130" height="130" viewBox="0 0 130 130" fill="none" xmlns="http://www.w3.org/2000/svg">
<rect width="130" height="130" rx="50" fill="#FFF"/>
<path d="M45.5555 86.4286C44.0278 86.4286 42.7204 85.8695 41.6333 84.7514C40.5463 83.6333 40.0019 82.2876 40 80.7143V60.7143C40 57.1905 40.6602 53.8686 41.9806 50.7486C43.3009 47.6286 45.0944 44.9029 47.3611 42.5714C49.6278 40.24 52.2787 38.3952 55.3139 37.0371C58.3491 35.679 61.5778 35 65 35C68.4222 35 71.6518 35.679 74.6888 37.0371C77.7259 38.3952 80.3759 40.24 82.6388 42.5714C84.9018 44.9029 86.6962 47.6295 88.0222 50.7514C89.3481 53.8733 90.0073 57.1943 89.9999 60.7143V89.2857C89.9999 90.8571 89.4564 92.2029 88.3694 93.3229C87.2823 94.4429 85.974 95.0019 84.4444 95H67.7777C66.9907 95 66.3314 94.7257 65.8 94.1771C65.2685 93.6286 65.0018 92.9505 65 92.1429C64.9981 91.3352 65.2648 90.6571 65.8 90.1086C66.3352 89.56 66.9944 89.2857 67.7777 89.2857H84.4444V86.4286H78.8888C77.3611 86.4286 76.0537 85.8695 74.9666 84.7514C73.8796 83.6333 73.3351 82.2876 73.3333 80.7143V69.2857C73.3333 67.7143 73.8777 66.3695 74.9666 65.2514C76.0555 64.1333 77.3629 63.5733 78.8888 63.5714H84.4444V60.7143C84.4444 55.1905 82.5462 50.4762 78.75 46.5714C74.9537 42.6667 70.3703 40.7143 65 40.7143C59.6296 40.7143 55.0463 42.6667 51.25 46.5714C47.4537 50.4762 45.5555 55.1905 45.5555 60.7143V63.5714H51.1111C52.6389 63.5714 53.9472 64.1314 55.0361 65.2514C56.125 66.3714 56.6685 67.7162 56.6666 69.2857V80.7143C56.6666 82.2857 56.1231 83.6314 55.0361 84.7514C53.9491 85.8714 52.6407 86.4305 51.1111 86.4286H45.5555Z" fill="black"/>
</svg>
