<svg width="181" height="172" viewBox="0 0 181 172" fill="none" xmlns="http://www.w3.org/2000/svg">
<rect width="181" height="172" fill=""/>
<path d="M63.4274 114.352C61.3003 114.352 59.48 113.612 57.9665 112.133C56.453 110.653 55.695 108.873 55.6924 106.791V80.3297C55.6924 75.6674 56.6116 71.2723 58.4499 67.1443C60.2883 63.0163 62.7854 59.41 65.9413 56.3253C69.0972 53.2407 72.7881 50.7999 77.014 49.003C81.2399 47.2062 85.7353 46.3077 90.5 46.3077C95.2648 46.3077 99.7614 47.2062 103.99 49.003C108.218 50.7999 111.908 53.2407 115.059 56.3253C118.209 59.41 120.708 63.0176 122.554 67.1481C124.4 71.2786 125.318 75.6725 125.308 80.3297V118.132C125.308 120.211 124.551 121.992 123.037 123.473C121.524 124.955 119.702 125.695 117.573 125.692H94.3675C93.2718 125.692 92.3539 125.329 91.6139 124.604C90.8739 123.878 90.5026 122.981 90.5 121.912C90.4975 120.844 90.8687 119.946 91.6139 119.221C92.359 118.495 93.2769 118.132 94.3675 118.132H117.573V114.352H109.838C107.71 114.352 105.89 113.612 104.377 112.133C102.863 110.653 102.105 108.873 102.103 106.791V91.6704C102.103 89.5913 102.861 87.812 104.377 86.3327C105.893 84.8534 107.713 84.1125 109.838 84.1099H117.573V80.3297C117.573 73.0213 114.93 66.7839 109.644 61.6176C104.359 56.4513 97.9772 53.8682 90.5 53.8682C83.0228 53.8682 76.6414 56.4513 71.3558 61.6176C66.0702 66.7839 63.4274 73.0213 63.4274 80.3297V84.1099H71.1624C73.2896 84.1099 75.1112 84.8509 76.6273 86.3327C78.1433 87.8145 78.9001 89.5938 78.8975 91.6704V106.791C78.8975 108.87 78.1407 110.651 76.6273 112.133C75.1138 113.615 73.2922 114.354 71.1624 114.352H63.4274Z" fill="#FFF"/>
</svg>
