<svg width="130" height="130" viewBox="0 0 130 130" fill="none" xmlns="http://www.w3.org/2000/svg">
<rect width="130" height="130" rx="50" fill="#FFF"/>
<path d="M56.9643 63.25C56.1905 63.25 55.5512 63.0015 55.0464 62.5045C54.5417 62.0075 54.2881 61.381 54.2857 60.625C54.2833 59.869 54.5369 59.2425 55.0464 58.7455C55.556 58.2485 56.1952 58 56.9643 58H73.0357C73.8095 58 74.45 58.2485 74.9571 58.7455C75.4643 59.2425 75.7167 59.869 75.7143 60.625C75.7119 61.381 75.4583 62.0087 74.9536 62.508C74.4488 63.0073 73.8095 63.2547 73.0357 63.25H56.9643ZM60.5357 73.75C59.7619 73.75 59.1226 73.5015 58.6179 73.0045C58.1131 72.5075 57.8595 71.881 57.8571 71.125C57.8548 70.369 58.1083 69.7425 58.6179 69.2455C59.1274 68.7485 59.7667 68.5 60.5357 68.5H69.4643C70.2381 68.5 70.8786 68.7485 71.3857 69.2455C71.8929 69.7425 72.1452 70.369 72.1429 71.125C72.1405 71.881 71.8869 72.5087 71.3821 73.008C70.8774 73.5073 70.2381 73.7547 69.4643 73.75H60.5357ZM59.6429 100C58.0952 100 56.6821 99.5485 55.4036 98.6455C54.125 97.7425 53.2464 96.5315 52.7679 95.0125L50.7143 88.275C50.3571 87.1083 49.8071 85.9277 49.0643 84.733C48.3214 83.5383 47.3536 82.2982 46.1607 81.0125C44.1369 78.8542 42.6048 76.4042 41.5643 73.6625C40.5238 70.9208 40.0024 68.0333 40 65C40 62.025 40.5214 59.1667 41.5643 56.425C42.6071 53.6833 44.1393 51.2042 46.1607 48.9875C47.3512 47.6458 48.319 46.3917 49.0643 45.225C49.8095 44.0583 50.3595 42.8917 50.7143 41.725L52.7679 34.9875C53.244 33.4708 54.1226 32.261 55.4036 31.358C56.6845 30.455 58.0976 30.0023 59.6429 30H70.3571C71.9048 30 73.319 30.4527 74.6 31.358C75.8809 32.2633 76.7583 33.4732 77.2321 34.9875L79.2857 41.725C79.6429 42.8917 80.194 44.0735 80.9393 45.2705C81.6845 46.4675 82.6512 47.7065 83.8393 48.9875C85.8631 51.1458 87.3964 53.5958 88.4393 56.3375C89.4821 59.0792 90.0024 61.9667 90 65C90 67.975 89.4798 70.8333 88.4393 73.575C87.3988 76.3167 85.8655 78.7958 83.8393 81.0125C82.6488 82.3542 81.6821 83.6083 80.9393 84.775C80.1964 85.9417 79.6452 87.1083 79.2857 88.275L77.2321 95.0125C76.7559 96.5292 75.8786 97.7402 74.6 98.6455C73.3214 99.5508 71.9071 100.002 70.3571 100H59.6429ZM65 82.5C69.9405 82.5 74.1524 80.7932 77.6357 77.3795C81.119 73.9658 82.8595 69.8393 82.8571 65C82.8548 60.1607 81.1131 56.0342 77.6321 52.6205C74.1512 49.2068 69.9405 47.5 65 47.5C60.0595 47.5 55.8488 49.2068 52.3679 52.6205C48.8869 56.0342 47.1452 60.1607 47.1429 65C47.1405 69.8393 48.8821 73.967 52.3679 77.383C55.8536 80.799 60.0643 82.5047 65 82.5Z" fill="black"/>
<path d="M97 48.6667L101.667 45.1083L106.333 48.6667L104.583 42.8917L109.25 39.5667H103.533L101.667 33.5L99.8 39.5667H94.0833L98.75 42.8917L97 48.6667ZM101.667 53.3333C100.053 53.3333 98.5361 53.0269 97.1167 52.414C95.6972 51.8011 94.4625 50.9701 93.4125 49.9208C92.3625 48.8716 91.5314 47.6369 90.9193 46.2167C90.3072 44.7964 90.0008 43.2798 90 41.6667C89.9992 40.0536 90.3057 38.5369 90.9193 37.1167C91.533 35.6964 92.3641 34.4617 93.4125 33.4125C94.4609 32.3633 95.6957 31.5322 97.1167 30.9193C98.5377 30.3064 100.054 30 101.667 30C103.279 30 104.796 30.3064 106.217 30.9193C107.638 31.5322 108.872 32.3633 109.921 33.4125C110.969 34.4617 111.801 35.6964 112.415 37.1167C113.03 38.5369 113.336 40.0536 113.333 41.6667C113.331 43.2798 113.025 44.7964 112.414 46.2167C111.803 47.6369 110.972 48.8716 109.921 49.9208C108.869 50.9701 107.635 51.8015 106.217 52.4152C104.799 53.0288 103.282 53.3349 101.667 53.3333Z" fill="black"/>
</svg>
