<svg width="120" height="120" viewBox="0 0 180 170" fill="none" xmlns="http://www.w3.org/2000/svg">
<rect width="180" height="170" fill=""/>
<path d="M67.3427 130.769C64.1958 130.769 61.521 129.339 59.3182 126.478C57.1154 123.618 56.014 120.144 56.014 116.058H48.4615V52.3077H108.881V71.9231H120.21L131.538 91.5385V116.058H123.986C123.986 120.144 122.885 123.618 120.682 126.478C118.479 129.339 115.804 130.769 112.657 130.769C109.511 130.769 106.836 129.339 104.633 126.478C102.43 123.618 101.329 120.144 101.329 116.058H78.6713C78.6713 120.144 77.5699 123.618 75.3671 126.478C73.1643 129.339 70.4895 130.769 67.3427 130.769ZM67.3427 120.962C68.4126 120.962 69.3101 120.491 70.0351 119.549C70.7601 118.608 71.1214 117.444 71.1189 116.058C71.1164 114.672 70.7539 113.508 70.0313 112.566C69.3088 111.625 68.4126 111.154 67.3427 111.154C66.2727 111.154 65.3765 111.625 64.654 112.566C63.9315 113.508 63.569 114.672 63.5664 116.058C63.5639 117.444 63.9264 118.609 64.654 119.554C65.3815 120.499 66.2778 120.968 67.3427 120.962ZM112.657 120.962C113.727 120.962 114.625 120.491 115.35 119.549C116.075 118.608 116.436 117.444 116.434 116.058C116.431 114.672 116.069 113.508 115.346 112.566C114.624 111.625 113.727 111.154 112.657 111.154C111.587 111.154 110.691 111.625 109.969 112.566C109.246 113.508 108.884 114.672 108.881 116.058C108.879 117.444 109.241 118.609 109.969 119.554C110.696 120.499 111.592 120.968 112.657 120.962ZM108.881 96.4424H124.93L116.434 81.7308H108.881V96.4424Z" fill="#FFF"/>
</svg>
