<svg width="120" height="120" viewBox="0 0 180 170" fill="none" xmlns="http://www.w3.org/2000/svg">
<rect width="180" height="180" fill=""/>
<path d="M78.8737 82.7115C77.8022 82.7115 76.9171 82.3865 76.2182 81.7366C75.5193 81.0867 75.1682 80.2674 75.1649 79.2788C75.1616 78.2902 75.5127 77.4709 76.2182 76.821C76.9237 76.1711 77.8088 75.8461 78.8737 75.8461H101.126C102.198 75.8461 103.085 76.1711 103.787 76.821C104.489 77.4709 104.838 78.2902 104.835 79.2788C104.832 80.2674 104.481 81.0882 103.782 81.7412C103.083 82.3941 102.198 82.7176 101.126 82.7115H78.8737ZM83.8187 96.4422C82.7473 96.4422 81.8621 96.1173 81.1632 95.4674C80.4643 94.8174 80.1132 93.9982 80.1099 93.0095C80.1066 92.0209 80.4577 91.2017 81.1632 90.5517C81.8687 89.9018 82.7539 89.5769 83.8187 89.5769H96.1813C97.2528 89.5769 98.1396 89.9018 98.8418 90.5517C99.544 91.2017 99.8934 92.0209 99.8901 93.0095C99.8868 93.9982 99.5357 94.819 98.8368 95.4719C98.1379 96.1249 97.2528 96.4483 96.1813 96.4422H83.8187ZM82.5824 130.769C80.4396 130.769 78.483 130.179 76.7127 128.998C74.9423 127.817 73.7258 126.233 73.0632 124.247L70.2198 115.436C69.7253 113.911 68.9638 112.367 67.9352 110.805C66.9066 109.242 65.5665 107.621 63.9149 105.939C61.1127 103.117 58.9912 99.9131 57.5506 96.3278C56.1099 92.7426 55.3879 88.9666 55.3846 84.9999C55.3846 81.1095 56.1066 77.3717 57.5506 73.7865C58.9945 70.2012 61.116 66.9592 63.9149 64.0605C65.5632 62.306 66.9033 60.666 67.9352 59.1403C68.9671 57.6147 69.7286 56.089 70.2198 54.5634L73.0632 45.7528C73.7226 43.7695 74.939 42.1874 76.7127 41.0066C78.4863 39.8257 80.4429 39.2338 82.5824 39.2307H97.4176C99.5605 39.2307 101.519 39.8227 103.292 41.0066C105.066 42.1905 106.281 43.7725 106.937 45.7528L109.78 54.5634C110.275 56.089 111.038 57.6345 112.07 59.1998C113.102 60.7651 114.44 62.3854 116.085 64.0605C118.887 66.883 121.01 70.0868 122.454 73.672C123.898 77.2573 124.619 81.0333 124.615 84.9999C124.615 88.8903 123.895 92.6281 122.454 96.2134C121.014 99.7986 118.891 103.041 116.085 105.939C114.437 107.694 113.098 109.334 112.07 110.86C111.041 112.385 110.278 113.911 109.78 115.436L106.937 124.247C106.277 126.23 105.063 127.814 103.292 128.998C101.522 130.182 99.5638 130.772 97.4176 130.769H82.5824ZM90 107.885C96.8407 107.885 102.673 105.653 107.496 101.189C112.319 96.7245 114.729 91.3283 114.725 84.9999C114.722 78.6716 112.31 73.2754 107.491 68.8114C102.671 64.3473 96.8407 62.1153 90 62.1153C83.1594 62.1153 77.3291 64.3473 72.5094 68.8114C67.6896 73.2754 65.278 78.6716 65.2748 84.9999C65.2715 91.3283 67.683 96.726 72.5094 101.193C77.3357 105.66 83.166 107.891 90 107.885Z" fill="#FFF"/>
<path d="M134.308 63.641L140.769 58.9878L147.231 63.641L144.808 56.089L151.269 51.741H143.354L140.769 43.8076L138.185 51.741H130.269L136.731 56.089L134.308 63.641ZM140.769 69.7435C138.535 69.7435 136.435 69.3428 134.469 68.5413C132.504 67.7399 130.794 66.6531 129.34 65.281C127.887 63.909 126.736 62.2943 125.888 60.4371C125.041 58.5799 124.616 56.5966 124.615 54.4871C124.614 52.3777 125.039 50.3943 125.888 48.5371C126.738 46.6799 127.889 45.0653 129.34 43.6932C130.792 42.3212 132.502 41.2344 134.469 40.4329C136.437 39.6314 138.537 39.2307 140.769 39.2307C143.002 39.2307 145.102 39.6314 147.069 40.4329C149.037 41.2344 150.746 42.3212 152.198 43.6932C153.65 45.0653 154.801 46.6799 155.652 48.5371C156.503 50.3943 156.926 52.3777 156.923 54.4871C156.92 56.5966 156.496 58.5799 155.65 60.4371C154.805 62.2943 153.654 63.909 152.198 65.281C150.742 66.6531 149.032 67.7404 147.069 68.5429C145.106 69.3453 143.006 69.7456 140.769 69.7435Z" fill="#FFF"/>
</svg>
