<svg width="130" height="130" viewBox="0 0 130 130" fill="none" xmlns="http://www.w3.org/2000/svg">
<rect width="130" height="130" rx="50" fill="#FFF"/>
<path d="M48.6364 100C46.3636 100 44.4318 98.9062 42.8409 96.7188C41.25 94.5312 40.4545 91.875 40.4545 88.75H35V40H78.6364V55H86.8182L95 70V88.75H89.5455C89.5455 91.875 88.75 94.5312 87.1591 96.7188C85.5682 98.9062 83.6364 100 81.3636 100C79.0909 100 77.1591 98.9062 75.5682 96.7188C73.9773 94.5312 73.1818 91.875 73.1818 88.75H56.8182C56.8182 91.875 56.0227 94.5312 54.4318 96.7188C52.8409 98.9062 50.9091 100 48.6364 100ZM48.6364 92.5C49.4091 92.5 50.0573 92.14 50.5809 91.42C51.1045 90.7 51.3655 89.81 51.3636 88.75C51.3618 87.69 51.1 86.8 50.5782 86.08C50.0564 85.36 49.4091 85 48.6364 85C47.8636 85 47.2164 85.36 46.6945 86.08C46.1727 86.8 45.9109 87.69 45.9091 88.75C45.9073 89.81 46.1691 90.7012 46.6945 91.4237C47.22 92.1462 47.8673 92.505 48.6364 92.5ZM81.3636 92.5C82.1364 92.5 82.7845 92.14 83.3082 91.42C83.8318 90.7 84.0927 89.81 84.0909 88.75C84.0891 87.69 83.8273 86.8 83.3055 86.08C82.7836 85.36 82.1364 85 81.3636 85C80.5909 85 79.9436 85.36 79.4218 86.08C78.9 86.8 78.6382 87.69 78.6364 88.75C78.6345 89.81 78.8964 90.7012 79.4218 91.4237C79.9473 92.1462 80.5945 92.505 81.3636 92.5ZM78.6364 73.75H90.2273L84.0909 62.5H78.6364V73.75Z" fill="#000"/>
</svg>
