<svg width="24" height="24" viewBox="0 0 24 24" fill="none" xmlns="http://www.w3.org/2000/svg">
<path d="M11.6667 16.3333L13.3 14.7L11.4333 12.8333H16.3333V10.5H11.4333L13.3 8.63333L11.6667 7L7 11.6667L11.6667 16.3333ZM11.6667 23.3333C10.0528 23.3333 8.53611 23.0269 7.11667 22.414C5.69722 21.8011 4.4625 20.9701 3.4125 19.9208C2.3625 18.8716 1.53145 17.6369 0.919335 16.2167C0.307224 14.7964 0.000779255 13.2798 1.47679e-06 11.6667C-0.000776301 10.0536 0.305668 8.53689 0.919335 7.11667C1.533 5.69644 2.36406 4.46172 3.4125 3.4125C4.46095 2.36328 5.69567 1.53222 7.11667 0.919333C8.53767 0.306445 10.0543 0 11.6667 0C13.279 0 14.7957 0.306445 16.2167 0.919333C17.6377 1.53222 18.8724 2.36328 19.9208 3.4125C20.9693 4.46172 21.8007 5.69644 22.4152 7.11667C23.0296 8.53689 23.3357 10.0536 23.3333 11.6667C23.331 13.2798 23.0246 14.7964 22.414 16.2167C21.8034 17.6369 20.9724 18.8716 19.9208 19.9208C18.8693 20.9701 17.6346 21.8015 16.2167 22.4152C14.7988 23.0288 13.2821 23.3349 11.6667 23.3333Z" fill="black"/>
</svg>
