<svg width="26" height="19" viewBox="0 0 26 19" fill="none" xmlns="http://www.w3.org/2000/svg">
<path fill-rule="evenodd" clip-rule="evenodd" d="M19.5417 0C21.0114 0 22.421 0.583853 23.4602 1.62312C24.4995 2.66238 25.0833 4.07193 25.0833 5.54167V12.5417C25.0833 14.0114 24.4995 15.421 23.4602 16.4602C22.421 17.4995 21.0114 18.0833 19.5417 18.0833H5.54167C4.07193 18.0833 2.66238 17.4995 1.62312 16.4602C0.583852 15.421 0 14.0114 0 12.5417V5.54167C0 4.07193 0.583852 2.66238 1.62312 1.62312C2.66238 0.583853 4.07193 0 5.54167 0H19.5417ZM9.00667 12.8683L5.79833 9.66C5.63447 9.49594 5.54244 9.27354 5.54244 9.04167C5.54244 8.80979 5.63447 8.5874 5.79833 8.42333L9.00667 5.215C9.08677 5.12903 9.18337 5.06008 9.29071 5.01226C9.39804 4.96443 9.5139 4.93872 9.63139 4.93664C9.74888 4.93457 9.86558 4.95618 9.97453 5.00019C10.0835 5.0442 10.1825 5.1097 10.2655 5.19279C10.3486 5.27588 10.4141 5.37485 10.4581 5.4838C10.5022 5.59276 10.5238 5.70946 10.5217 5.82694C10.5196 5.94443 10.4939 6.0603 10.4461 6.16763C10.3983 6.27496 10.3293 6.37156 10.2433 6.45167L8.52833 8.16667H18.0833C18.3154 8.16667 18.538 8.25885 18.7021 8.42295C18.8661 8.58704 18.9583 8.8096 18.9583 9.04167C18.9583 9.27373 18.8661 9.49629 18.7021 9.66038C18.538 9.82448 18.3154 9.91667 18.0833 9.91667H8.52833L10.2433 11.6317C10.3293 11.7118 10.3983 11.8084 10.4461 11.9157C10.4939 12.023 10.5196 12.1389 10.5217 12.2564C10.5238 12.3739 10.5022 12.4906 10.4581 12.5995C10.4141 12.7085 10.3486 12.8075 10.2655 12.8905C10.1825 12.9736 10.0835 13.0391 9.97453 13.0831C9.86558 13.1272 9.74888 13.1488 9.63139 13.1467C9.5139 13.1446 9.39804 13.1189 9.29071 13.0711C9.18337 13.0233 9.08677 12.9543 9.00667 12.8683Z" fill="black"/>
</svg>
