<svg width="28" height="22" viewBox="0 0 28 22" fill="none" xmlns="http://www.w3.org/2000/svg">
<path d="M28 19V21C28 21.2708 27.901 21.5052 27.7031 21.7031C27.5052 21.901 27.2708 22 27 22H1C0.729167 22 0.494792 21.901 0.296875 21.7031C0.0989583 21.5052 0 21.2708 0 21V19C0 18.7292 0.0989583 18.4948 0.296875 18.2969C0.494792 18.099 0.729167 18 1 18H27C27.2708 18 27.5052 18.099 27.7031 18.2969C27.901 18.4948 28 18.7292 28 19ZM28 13V15C28 15.2708 27.901 15.5052 27.7031 15.7031C27.5052 15.901 27.2708 16 27 16H1C0.729167 16 0.494792 15.901 0.296875 15.7031C0.0989583 15.5052 0 15.2708 0 15V13C0 12.7292 0.0989583 12.4948 0.296875 12.2969C0.494792 12.099 0.729167 12 1 12H27C27.2708 12 27.5052 12.099 27.7031 12.2969C27.901 12.4948 28 12.7292 28 13ZM28 7V9C28 9.27083 27.901 9.50521 27.7031 9.70312C27.5052 9.90104 27.2708 10 27 10H1C0.729167 10 0.494792 9.90104 0.296875 9.70312C0.0989583 9.50521 0 9.27083 0 9V7C0 6.72917 0.0989583 6.49479 0.296875 6.29688C0.494792 6.09896 0.729167 6 1 6H27C27.2708 6 27.5052 6.09896 27.7031 6.29688C27.901 6.49479 28 6.72917 28 7ZM28 1V3C28 3.27083 27.901 3.50521 27.7031 3.70312C27.5052 3.90104 27.2708 4 27 4H1C0.729167 4 0.494792 3.90104 0.296875 3.70312C0.0989583 3.50521 0 3.27083 0 3V1C0 0.729167 0.0989583 0.494792 0.296875 0.296875C0.494792 0.0989583 0.729167 0 1 0H27C27.2708 0 27.5052 0.0989583 27.7031 0.296875C27.901 0.494792 28 0.729167 28 1Z" fill="black"/>
</svg>
