<svg width="26" height="19" viewBox="0 0 26 19" fill="none" xmlns="http://www.w3.org/2000/svg">
<path fill-rule="evenodd" clip-rule="evenodd" d="M5.54167 0C4.07193 0 2.66238 0.583853 1.62312 1.62312C0.583852 2.66238 0 4.07193 0 5.54167V12.5417C0 14.0114 0.583852 15.421 1.62312 16.4602C2.66238 17.4995 4.07193 18.0833 5.54167 18.0833H19.5417C21.0114 18.0833 22.421 17.4995 23.4602 16.4602C24.4995 15.421 25.0833 14.0114 25.0833 12.5417V5.54167C25.0833 4.07193 24.4995 2.66238 23.4602 1.62312C22.421 0.583853 21.0114 0 19.5417 0H5.54167ZM15.4933 12.8683L18.7017 9.66C18.8655 9.49594 18.9576 9.27354 18.9576 9.04167C18.9576 8.80979 18.8655 8.5874 18.7017 8.42333L15.4933 5.215C15.4132 5.12903 15.3166 5.06008 15.2093 5.01226C15.102 4.96443 14.9861 4.93872 14.8686 4.93664C14.7511 4.93457 14.6344 4.95618 14.5255 5.00019C14.4165 5.0442 14.3175 5.1097 14.2345 5.19279C14.1514 5.27588 14.0859 5.37485 14.0419 5.4838C13.9978 5.59276 13.9762 5.70946 13.9783 5.82694C13.9804 5.94443 14.0061 6.0603 14.0539 6.16763C14.1017 6.27496 14.1707 6.37156 14.2567 6.45167L15.9717 8.16667H6.41667C6.1846 8.16667 5.96204 8.25885 5.79795 8.42295C5.63385 8.58704 5.54167 8.8096 5.54167 9.04167C5.54167 9.27373 5.63385 9.49629 5.79795 9.66038C5.96204 9.82448 6.1846 9.91667 6.41667 9.91667H15.9717L14.2567 11.6317C14.1707 11.7118 14.1017 11.8084 14.0539 11.9157C14.0061 12.023 13.9804 12.1389 13.9783 12.2564C13.9762 12.3739 13.9978 12.4906 14.0419 12.5995C14.0859 12.7085 14.1514 12.8075 14.2345 12.8905C14.3175 12.9736 14.4165 13.0391 14.5255 13.0831C14.6344 13.1272 14.7511 13.1488 14.8686 13.1467C14.9861 13.1446 15.102 13.1189 15.2093 13.0711C15.3166 13.0233 15.4132 12.9543 15.4933 12.8683Z" fill="gray"/>
</svg>
